# xmcd
#
# Track frame offsets: 
#        150
#        38040
#        64997
#        87986
#        110587
#        139319
#        168600
#        195747
#        211452
#        225616
#        241241
#        254286
#        271341
#        283811
#        300921
#
# Disc length: 4238 seconds
#
# Revision: 0
# Processed by: cddbd v1.5.2PL0 Copyright (c) Steve Scherf et al.
# Submitted via: ExactAudioCopyFreeDBPlugin 1.0
#
DISCID=dc108c0f
DTITLE=Nolwenn Leroy - O Tour de L'eau [CD 2-2)
DYEAR=2014
DGENRE=Celtic
TTITLE0=Jig Bob
TTITLE1=Suite Sudarmoricaine
TTITLE2=Tri Martolod
TTITLE3=La Jument de Micho
TTITLE4=Sixième Continent
TTITLE5=Ohio
TTITLE6=D'Emauraude
TTITLE7=Bro Gozh Va Zadou
TTITLE8=Je serais ta Parisionne
TTITLE9=Siuil A Ruin
TTITLE10=Tri Martolod
TTITLE11=Greensleeves
TTITLE12=Le Chant de la Mer
TTITLE13=La Chanson de la Mer
TTITLE14=Song of the Sea (Lullaby)
EXTD=
EXTT0=
EXTT1=
EXTT2=
EXTT3=
EXTT4=
EXTT5=
EXTT6=
EXTT7=
EXTT8=
EXTT9=
EXTT10=
EXTT11=
EXTT12=
EXTT13=
EXTT14=
PLAYORDER=
